<?xml version="1.0" standalone="no"?><!DOCTYPE svg PUBLIC "-//W3C//DTD SVG 1.1//EN" "http://www.w3.org/Graphics/SVG/1.1/DTD/svg11.dtd"><svg t="1643083744431" class="icon" viewBox="0 0 1024 1024" version="1.1" xmlns="http://www.w3.org/2000/svg" p-id="1016" xmlns:xlink="http://www.w3.org/1999/xlink" width="200" height="200"><defs><style type="text/css"></style></defs><path d="M602.482269 579.723428l-71.837118-0.347924 71.91489-100.943017c6.302543-8.847505 4.240581-21.128203-4.606925-27.431769-8.846482-6.302543-21.128203-4.239558-27.431769 4.606925l-64.817238 90.980107-65.685002-90.813309c-6.365988-8.801457-18.659989-10.776438-27.463492-4.409426-8.801457 6.365988-10.775414 18.662035-4.409426 27.463492l72.550363 100.305497-68.870554-0.333598c-0.038886 0-0.076748 0-0.115634 0-10.80816 0-19.603477 8.509814-19.665899 19.333324-0.063445 10.862395 8.691963 19.4991 19.554358 19.560498l74.019831 0.393973 0.234337 41.553395-61.660338 0c-10.737552 0-19.442818 8.705266-19.442818 19.442818s8.705266 19.442818 19.442818 19.442818l61.879326 0 0.26913 47.835472c0.061398 10.825556 8.853645 19.702738 19.665899 19.702738 0.036839 0 0.075725 0 0.112564 0 10.862395 0 19.618826-9.111518 19.557428-19.974937l-0.268106-47.563272 56.371892 0c10.737552 0 19.442818-8.705266 19.442818-19.442818s-8.705266-19.442818-19.442818-19.442818l-56.590879 0-0.233314-41.343617 77.295434 0.411369c0.038886 0 0.076748 0 0.115634 0 10.809183 0 19.603477-8.555863 19.666922-19.379373C622.099049 588.467579 613.344664 579.784826 602.482269 579.723428z" p-id="1017"></path><path d="M827.307757 691.094958c-3.568269-56.81703-13.704117-111.608937-30.126134-162.876578-13.269211-41.419342-30.651091-80.644715-51.662637-116.588345-34.026978-58.204633-66.532299-88.922239-71.38584-93.351108-24.485671-24.817222-51.989071-40.97625-79.360466-51.291177L699.340247 110.731964 687.921173 99.310843c-24.52558-24.530696-51.623751-36.96796-80.543408-36.96796-31.598672 0-53.094242 15.250332-55.441707 16.989953l-0.118704 0.089028c-13.887288 10.453073-28.765137 15.753799-44.219107 15.753799-15.640212 0-28.134781-5.436826-33.406854-8.157797C461.324342 70.437236 442.140421 61.708434 418.391531 61.708434c-23.855314 0-44.434002 8.836249-46.702672 9.844206l-3.342118 1.484817-2.584871 2.586918c-11.660574 11.667737-35.099403 18.187221-43.10575 19.706831l-30.746258 5.694699 121.639384 166.478615c-75.555813 44.986587-132.425032 135.324058-134.981251 139.426493l-0.188288 0.309038c-46.261627 77.406974-66.861804 160.54344-75.997881 216.655412-9.895371 60.777225-8.908904 103.115496-8.861832 104.887862l0.024559 0.599657c3.097548 54.368258 32.530904 99.910501 85.116563 131.701554 38.240953 23.119557 75.393107 30.81175 76.857459 31.107485 57.743122 11.991102 115.301026 18.070564 171.07326 18.070564 113.020076 0 182.935426-24.689309 193.191001-28.557406 56.666604-15.115256 93.206822-53.53324 105.70139-111.168915C833.689095 732.694401 828.606333 698.550767 827.307757 691.094958zM390.405129 106.429984c5.02034-1.835811 16.244986-5.384637 27.987425-5.384637 16.22145 0 22.596647 6.757914 25.980721 11.840676l2.198062 3.303232 3.307326 2.191922c2.491751 1.650593 25.275663 16.131399 57.719586 16.131399 24.13877 0 46.938032-7.934716 67.769476-23.582091 0.478907-0.335644 13.58132-9.250688 32.010041-9.250688 13.853519 0 27.494191 5.012154 40.697911 14.929014L566.403562 238.649332c-12.047384-3.287883-30.589692-6.608511-56.331983-6.608511-21.179368 0-44.285622 2.241041-68.839855 6.670933l-82.773192-113.285113C369.047706 121.140011 380.774795 114.995057 390.405129 106.429984zM787.041682 762.202459c-9.355065 43.147706-35.685757 70.64292-78.261435 81.722256l-1.178849 0.308015-1.1328 0.449231c-0.661056 0.26299-67.313082 26.243711-179.873694 26.243711-53.091172 0-107.957781-5.804193-163.139567-17.262152-0.325411-0.066515-32.895201-6.933923-65.35038-26.796296-40.862663-25.007557-62.818721-58.439994-65.264423-99.377358-0.062422-3.626597-0.49528-43.302225 8.523117-98.214882 8.611122-52.429093 27.863604-129.959887 70.675666-201.674209 1.236154-1.961678 16.420995-25.840528 40.301891-53.872978 31.609928-37.106106 63.912635-64.413032 93.556792-79.111802 5.942339-1.266853 25.809829-5.03262 51.994188-5.03262 42.411949 0 102.618169 9.832949 148.586107 56.675814l0.963954 0.917906c0.317225 0.282433 32.027437 28.945239 65.043389 85.897346 19.35379 33.385365 35.374672 69.840648 47.619554 108.351754 15.312754 48.158836 24.737404 99.718119 28.013007 153.246243l0.080841 1.326205 0.258896 1.302669C788.517289 697.607278 794.420743 728.164225 787.041682 762.202459z" p-id="1018"></path></svg>