<?xml version="1.0" standalone="no"?><!DOCTYPE svg PUBLIC "-//W3C//DTD SVG 1.1//EN" "http://www.w3.org/Graphics/SVG/1.1/DTD/svg11.dtd"><svg t="1643083738769" class="icon" viewBox="0 0 1024 1024" version="1.1" xmlns="http://www.w3.org/2000/svg" p-id="871" xmlns:xlink="http://www.w3.org/1999/xlink" width="200" height="200"><defs><style type="text/css"></style></defs><path d="M875.944557 250.0896 875.60137 250.43136C864.844467 261.24352 864.844467 278.768 875.60137 289.52448 886.072058 300.02688 904.280435 300.05312 914.72889 289.52448L986.717632 217.56416C1036.426995 167.82784 1036.426995 86.95616 986.717632 37.27424 962.673683 13.23264 930.662784 0 896.573312 0 862.483834 0 830.499334 13.23264 806.451219 37.27424L744.588582 99.13536 438.411334 99.13536C431.014054 99.13536 424.072499 102.01152 418.862163 107.24416L30.018464 496.07616C10.670765 515.4304 0 541.15072 0 568.55232 0 595.9552 10.670765 621.70752 30.018464 641.08224L382.953939 994.00896C402.329434 1013.32416 428.083763 1024 455.426202 1024 482.829773 1024 508.582714 1013.35744 527.958208 994.00896L916.747718 605.20256C921.952499 599.96608 924.85639 593.02336 924.85639 585.62624L924.85639 408.0672C924.85639 392.81728 912.448851 380.38336 897.197158 380.38336 881.946861 380.38336 869.539322 392.78912 869.539322 408.0672L869.539322 574.18624 488.865427 954.91008C479.959232 963.78944 468.12135 968.67904 455.485946 968.67904 442.850541 968.67904 430.986266 963.78944 422.107859 954.91008L69.145984 601.93088C60.2384 593.02336 55.31568 581.15968 55.31568 568.52608 55.31568 555.9168 60.212 544.08064 69.118195 535.17504L449.853229 154.44992 689.272909 154.44992 669.186029 174.54144C645.110118 198.6112 631.910611 230.65472 632.024544 264.7712 632.105126 298.97344 645.59225 331.21152 670.265613 355.82464L671.660589 356.992C682.075699 365.80992 698.326381 365.55584 708.394138 356.39424 719.606771 346.06528 720.377901 328.53568 710.103123 317.35552 709.419526 316.55808 708.394138 315.64608 707.600774 314.93504 680.312525 286.8224 680.654323 241.3792 708.339949 213.66656L845.609306 76.4608C859.211744 62.85888 877.306195 55.37536 896.601101 55.37536 915.894618 55.37536 934.016851 62.85888 947.651251 76.4608 961.252301 90.06144 968.76352 108.15552 968.76352 127.47648 968.76352 146.79808 961.278701 164.92416 947.651251 178.5248L875.944557 250.0896Z" p-id="872"></path></svg>